# xmcd
#
# Track frame offsets:
#	150
#	19677
#	38609
#	61379
#	80727
#	97363
#	116176
#	136042
#	154596
#	171599
#	190349
#	212371
#
# Disc length: 3052 seconds
#
# Revision: 0
# Processed by: cddbd v1.4PL0 Copyright (c) Steve Scherf et al.
# Submitted via: dBpowerAMP V4.0
#
DISCID=a40bea0c
DTITLE=Chris Whiteley - Blues Party
DYEAR=1999
DGENRE=Blues
TTITLE0=Nobody Home
TTITLE1=My Love Is Blue
TTITLE2=Too Many Cooks
TTITLE3=Blues On A Swing
TTITLE4=Ropin' and Ridin'
TTITLE5=Hope You Miss Me Too
TTITLE6=Blues Party
TTITLE7=Life Is Magic
TTITLE8=They Said It Wouldn't Last
TTITLE9=Glory Of Love
TTITLE10=Reefer Smokin' Woman
TTITLE11=Drink Muddy Water
EXTD=
EXTT0=
EXTT1=
EXTT2=
EXTT3=
EXTT4=
EXTT5=
EXTT6=
EXTT7=
EXTT8=
EXTT9=
EXTT10=
EXTT11=
PLAYORDER=
